<svg width="16" height="16" viewBox="0 0 16 16" fill="none" xmlns="http://www.w3.org/2000/svg">
<g clip-path="url(#clip0_5_307)">
<path d="M14.5 3C14.6326 3 14.7598 3.05268 14.8536 3.14645C14.9473 3.24021 15 3.36739 15 3.5V12.5C15 12.6326 14.9473 12.7598 14.8536 12.8536C14.7598 12.9473 14.6326 13 14.5 13H1.5C1.36739 13 1.24021 12.9473 1.14645 12.8536C1.05268 12.7598 1 12.6326 1 12.5V3.5C1 3.36739 1.05268 3.24021 1.14645 3.14645C1.24021 3.05268 1.36739 3 1.5 3H14.5ZM1.5 2C1.10218 2 0.720644 2.15804 0.43934 2.43934C0.158035 2.72064 0 3.10218 0 3.5L0 12.5C0 12.8978 0.158035 13.2794 0.43934 13.5607C0.720644 13.842 1.10218 14 1.5 14H14.5C14.8978 14 15.2794 13.842 15.5607 13.5607C15.842 13.2794 16 12.8978 16 12.5V3.5C16 3.10218 15.842 2.72064 15.5607 2.43934C15.2794 2.15804 14.8978 2 14.5 2H1.5Z" fill="#E2F4C5"/>
<path d="M6.99998 5.50001C6.99998 5.3674 7.05266 5.24022 7.14643 5.14646C7.2402 5.05269 7.36738 5.00001 7.49998 5.00001H12.5C12.6326 5.00001 12.7598 5.05269 12.8535 5.14646C12.9473 5.24022 13 5.3674 13 5.50001C13 5.63262 12.9473 5.75979 12.8535 5.85356C12.7598 5.94733 12.6326 6.00001 12.5 6.00001H7.49998C7.36738 6.00001 7.2402 5.94733 7.14643 5.85356C7.05266 5.75979 6.99998 5.63262 6.99998 5.50001ZM5.50398 4.64601C5.55055 4.69245 5.58749 4.74763 5.6127 4.80837C5.6379 4.86912 5.65088 4.93424 5.65088 5.00001C5.65088 5.06578 5.6379 5.1309 5.6127 5.19164C5.58749 5.25239 5.55055 5.30756 5.50398 5.35401L4.00398 6.85401C3.95754 6.90057 3.90236 6.93751 3.84162 6.96272C3.78087 6.98793 3.71575 7.0009 3.64998 7.0009C3.58422 7.0009 3.5191 6.98793 3.45835 6.96272C3.39761 6.93751 3.34243 6.90057 3.29598 6.85401L2.79598 6.35401C2.7495 6.30752 2.71262 6.25233 2.68746 6.19159C2.6623 6.13085 2.64935 6.06575 2.64935 6.00001C2.64935 5.86723 2.7021 5.7399 2.79598 5.64601C2.88987 5.55212 3.01721 5.49938 3.14998 5.49938C3.28276 5.49938 3.4101 5.55212 3.50398 5.64601L3.64998 5.79301L4.79598 4.64601C4.84243 4.59945 4.89761 4.5625 4.95835 4.5373C5.0191 4.51209 5.08422 4.49911 5.14998 4.49911C5.21575 4.49911 5.28087 4.51209 5.34162 4.5373C5.40236 4.5625 5.45754 4.59945 5.50398 4.64601ZM6.99998 9.50001C6.99998 9.3674 7.05266 9.24022 7.14643 9.14645C7.2402 9.05269 7.36738 9.00001 7.49998 9.00001H12.5C12.6326 9.00001 12.7598 9.05269 12.8535 9.14645C12.9473 9.24022 13 9.3674 13 9.50001C13 9.63262 12.9473 9.75979 12.8535 9.85356C12.7598 9.94733 12.6326 10 12.5 10H7.49998C7.36738 10 7.2402 9.94733 7.14643 9.85356C7.05266 9.75979 6.99998 9.63262 6.99998 9.50001ZM5.50398 8.64601C5.55055 8.69245 5.58749 8.74763 5.6127 8.80838C5.6379 8.86912 5.65088 8.93424 5.65088 9.00001C5.65088 9.06578 5.6379 9.1309 5.6127 9.19164C5.58749 9.25239 5.55055 9.30756 5.50398 9.35401L4.00398 10.854C3.95754 10.9006 3.90236 10.9375 3.84162 10.9627C3.78087 10.9879 3.71575 11.0009 3.64998 11.0009C3.58422 11.0009 3.5191 10.9879 3.45835 10.9627C3.39761 10.9375 3.34243 10.9006 3.29598 10.854L2.79598 10.354C2.7495 10.3075 2.71262 10.2523 2.68746 10.1916C2.6623 10.1309 2.64935 10.0658 2.64935 10C2.64935 9.93426 2.6623 9.86916 2.68746 9.80842C2.71262 9.74769 2.7495 9.6925 2.79598 9.64601C2.84247 9.59952 2.89766 9.56264 2.9584 9.53749C3.01914 9.51233 3.08424 9.49938 3.14998 9.49938C3.21573 9.49938 3.28083 9.51233 3.34157 9.53749C3.40231 9.56264 3.4575 9.59952 3.50398 9.64601L3.64998 9.79301L4.79598 8.64601C4.84243 8.59945 4.89761 8.5625 4.95835 8.5373C5.0191 8.51209 5.08422 8.49911 5.14998 8.49911C5.21575 8.49911 5.28087 8.51209 5.34162 8.5373C5.40236 8.5625 5.45754 8.59945 5.50398 8.64601Z" fill="#E2F4C5"/>
</g>
<defs>
<clipPath id="clip0_5_307">
<rect width="16" height="16" fill="white"/>
</clipPath>
</defs>
</svg>
